<svg xmlns="http://www.w3.org/2000/svg" xmlns:xlink="http://www.w3.org/1999/xlink" width="500" zoomAndPan="magnify" viewBox="0 0 375 374.999991" height="500" preserveAspectRatio="xMidYMid meet" version="1.0"><defs><clipPath id="id1"><path d="M 4.480469 8.140625 L 370.480469 8.140625 L 370.480469 366 L 4.480469 366 Z M 4.480469 8.140625 " clip-rule="nonzero"/></clipPath></defs><g clip-path="url(#id1)"><path fill="rgb(12.159729%, 12.159729%, 12.159729%)" d="M 187.480469 8.269531 C 86.425781 8.269531 4.480469 90.160156 4.480469 191.179688 C 4.480469 272 56.917969 340.566406 129.628906 364.742188 C 138.773438 366.445312 142.132812 360.769531 142.132812 355.941406 C 142.132812 351.582031 141.964844 337.179688 141.882812 321.886719 C 90.972656 332.960938 80.230469 300.308594 80.230469 300.308594 C 71.90625 279.160156 59.910156 273.546875 59.910156 273.546875 C 43.308594 262.199219 61.164062 262.425781 61.164062 262.425781 C 79.539062 263.714844 89.214844 281.277344 89.214844 281.277344 C 105.539062 309.242188 132.027344 301.152344 142.46875 296.480469 C 144.113281 284.664062 148.851562 276.589844 154.082031 272.015625 C 113.441406 267.402344 70.710938 251.710938 70.710938 181.632812 C 70.710938 161.65625 77.859375 145.339844 89.566406 132.53125 C 87.667969 127.921875 81.402344 109.320312 91.339844 84.125 C 91.339844 84.125 106.707031 79.210938 141.679688 102.875 C 156.269531 98.820312 171.925781 96.789062 187.480469 96.71875 C 203.035156 96.789062 218.707031 98.820312 233.332031 102.875 C 268.257812 79.210938 283.597656 84.125 283.597656 84.125 C 293.5625 109.320312 287.300781 127.921875 285.402344 132.53125 C 297.125 145.339844 304.230469 161.65625 304.230469 181.632812 C 304.230469 251.882812 261.425781 267.34375 220.664062 271.875 C 227.226562 277.546875 233.089844 288.679688 233.089844 305.753906 C 233.089844 330.21875 232.875 349.925781 232.875 355.941406 C 232.875 360.8125 236.164062 366.515625 245.441406 364.714844 C 318.113281 340.507812 370.480469 271.972656 370.480469 191.179688 C 370.480469 90.160156 288.546875 8.269531 187.480469 8.269531 Z M 73.023438 268.828125 C 72.617188 269.742188 71.1875 270.015625 69.886719 269.386719 C 68.558594 268.785156 67.8125 267.558594 68.242188 266.644531 C 68.636719 265.699219 70.070312 265.441406 71.394531 266.070312 C 72.726562 266.671875 73.484375 267.914062 73.023438 268.828125 Z M 82.023438 276.859375 C 81.148438 277.660156 79.445312 277.289062 78.285156 276.015625 C 77.089844 274.730469 76.863281 273.03125 77.75 272.214844 C 78.652344 271.402344 80.304688 271.789062 81.503906 273.058594 C 82.703125 274.34375 82.933594 276.046875 82.023438 276.859375 Z M 88.199219 287.136719 C 87.078125 287.90625 85.246094 287.175781 84.109375 285.546875 C 82.988281 283.917969 82.988281 281.976562 84.136719 281.191406 C 85.273438 280.40625 87.078125 281.117188 88.226562 282.734375 C 89.34375 284.375 89.34375 286.335938 88.199219 287.136719 Z M 98.640625 299.023438 C 97.640625 300.125 95.503906 299.839844 93.941406 298.324219 C 92.339844 296.851562 91.894531 294.75 92.902344 293.652344 C 93.914062 292.550781 96.0625 292.851562 97.640625 294.351562 C 99.226562 295.824219 99.714844 297.9375 98.640625 299.023438 Z M 112.140625 303.039062 C 111.699219 304.46875 109.640625 305.125 107.566406 304.511719 C 105.496094 303.898438 104.144531 302.210938 104.5625 300.765625 C 104.992188 299.324219 107.058594 298.636719 109.144531 299.296875 C 111.214844 299.925781 112.570312 301.582031 112.140625 303.039062 Z M 127.5 304.738281 C 127.554688 306.253906 125.796875 307.496094 123.621094 307.527344 C 121.429688 307.582031 119.660156 306.355469 119.636719 304.867188 C 119.636719 303.355469 121.355469 302.109375 123.542969 302.082031 C 125.71875 302.039062 127.5 303.238281 127.5 304.738281 Z M 142.59375 304.167969 C 142.851562 305.640625 141.339844 307.15625 139.179688 307.554688 C 137.054688 307.941406 135.089844 307.027344 134.820312 305.570312 C 134.554688 304.066406 136.09375 302.554688 138.214844 302.167969 C 140.378906 301.78125 142.316406 302.667969 142.59375 304.167969 Z M 142.59375 304.167969 " fill-opacity="1" fill-rule="nonzero"/></g></svg>