<svg xmlns="http://www.w3.org/2000/svg" xmlns:xlink="http://www.w3.org/1999/xlink" width="500" zoomAndPan="magnify" viewBox="0 0 375 374.999991" height="500" preserveAspectRatio="xMidYMid meet" version="1.0"><path fill="rgb(12.159729%, 12.159729%, 12.159729%)" d="M 187.339844 -0.109375 C 83.8125 -0.109375 -0.109375 83.8125 -0.109375 187.339844 C -0.109375 290.863281 83.8125 374.785156 187.339844 374.785156 C 290.863281 374.785156 374.785156 290.863281 374.785156 187.339844 C 374.785156 83.8125 290.863281 -0.109375 187.339844 -0.109375 Z M 95.128906 119.214844 L 279.546875 119.214844 C 280.628906 119.214844 281.679688 119.324219 282.71875 119.488281 L 187.339844 178.960938 L 91.960938 119.488281 C 92.996094 119.324219 94.046875 119.214844 95.128906 119.214844 Z M 299.628906 245.355469 C 299.628906 256.449219 290.640625 265.441406 279.546875 265.441406 L 95.125 265.441406 C 84.03125 265.441406 75.039062 256.449219 75.039062 245.355469 L 75.039062 139.300781 C 75.039062 138.128906 75.160156 136.988281 75.351562 135.867188 L 181.335938 201.953125 C 181.464844 202.035156 181.605469 202.089844 181.738281 202.164062 C 181.875 202.238281 182.019531 202.316406 182.160156 202.382812 C 182.914062 202.765625 183.683594 203.082031 184.46875 203.28125 C 184.550781 203.304688 184.632812 203.320312 184.710938 203.339844 C 185.578125 203.542969 186.453125 203.671875 187.328125 203.671875 C 187.332031 203.671875 187.335938 203.671875 187.339844 203.671875 C 187.339844 203.671875 187.34375 203.671875 187.347656 203.671875 C 188.222656 203.671875 189.097656 203.542969 189.964844 203.339844 C 190.042969 203.320312 190.125 203.304688 190.207031 203.28125 C 190.992188 203.078125 191.769531 202.765625 192.515625 202.382812 C 192.65625 202.316406 192.800781 202.238281 192.941406 202.164062 C 193.074219 202.089844 193.214844 202.035156 193.339844 201.953125 L 299.3125 135.867188 C 299.515625 136.988281 299.632812 138.128906 299.632812 139.300781 L 299.632812 245.355469 Z M 299.628906 245.355469 " fill-opacity="1" fill-rule="nonzero"/></svg>