<svg
                    width="450"
                    height="450"
                    viewBox="0 0 450 450"
                    fill="none"
                    xmlns="http://www.w3.org/2000/svg"
                >
                    <circle cx="225" cy="225" r="225" fill="#2541B2" />
                    <mask
                        id="mask0_1_83"
                        style="mask-type: alpha"
                        maskUnits="userSpaceOnUse"
                        x="0"
                        y="0"
                        width="450"
                        height="450"
                    >
                        <circle cx="225" cy="225" r="225" fill="#2541B2" />
                    </mask>
                    <g mask="url(#mask0_1_83)">
                        <path
                            fill-rule="evenodd"
                            clip-rule="evenodd"
                            d="M199.651 199.816C209.553 192.903 241.698 198.112 254.949 199.816C261.912 200.711 266.022 209.754 269.679 223.502C288.759 218.819 313.799 214.384 331.786 227.076C337.341 231.918 338.38 240.17 331.972 244.775C329.884 246.184 325.86 247.381 325.223 248.602C322.645 255.168 319.77 263.846 320.228 270.83C328.419 344.154 344.84 417.677 356.39 490.532L356.696 493.289C358.05 505.684 359.146 520.309 350.734 530.178C345.078 534.977 337.033 534.315 330.121 535.699C264.963 544.437 199.172 536.084 133.749 538.749C122.601 539.378 111.393 540.19 100.219 540.273L100.214 540.143C101.418 540.134 102.623 540.117 103.83 540.092C102.594 503.668 100.045 467.293 99.222 430.853C98.9623 419.367 98.8865 407.877 99.1132 396.39C99.1592 394.062 95.5466 394.062 95.5005 396.39C95.4251 400.201 95.3917 404.012 95.3759 407.823C92.67 405.699 89.661 404.015 86.7736 402.119C84.8237 400.839 83.0119 403.969 84.9501 405.242C88.3749 407.49 92.0201 409.377 94.9893 412.25C95.1094 412.367 95.235 412.456 95.3628 412.531C95.4291 449.143 97.9332 485.728 99.5232 522.292C99.7584 527.703 99.9719 533.115 100.16 538.528L100.218 540.273C88.1212 540.363 76.0628 539.598 64.1603 536.822C62.1494 539.627 57.4655 540.184 55.0843 536.563C53.893 535.196 53.6533 532.871 51.8094 532.35C51.3136 531.962 52.079 531.686 52.4295 531.869C36.1458 485.161 51.0056 398.118 64.1345 350.266C69.8782 325.593 83.6841 302.752 85.1215 277.211C85.2727 265.174 76.6493 250.672 87.5826 241.001C85.97 232.16 94.3198 224.792 102.75 224.209C113.126 186.706 159.053 230.445 183.921 230.887C187.331 225.211 194.914 203.123 199.651 199.816ZM339.457 445.342C339.455 443.015 335.842 443.011 335.844 445.342C335.869 470.09 337.992 499.719 341.046 524.263C341.33 526.542 344.946 526.571 344.659 524.263C341.605 499.719 339.481 470.09 339.457 445.342ZM170.009 477.108C172.06 476.008 170.237 472.885 168.186 473.984C153.13 482.056 139.06 491.703 125.528 502.106C123.709 503.504 125.506 506.647 127.351 505.229C140.883 494.825 154.953 485.179 170.009 477.108ZM300.663 472.488C299.24 470.777 296.19 472.555 297.594 474.376C300.864 478.615 304.926 481.955 309.687 484.398C311.728 485.445 313.539 482.413 311.583 481.314L311.511 481.276C307.447 479.19 303.784 476.428 300.937 472.836L300.663 472.488ZM119.858 366.666C120.362 364.398 116.88 363.43 116.374 365.705C115.311 370.485 116.084 375.57 117.189 380.305L117.264 380.621L117.415 381.248C117.613 382.062 118.374 382.517 119.156 382.575C132.445 383.56 145.589 379.039 158.329 375.704L159.272 375.459L160.214 375.22C162.467 374.652 161.513 371.163 159.253 371.732L158.247 371.989C145.999 375.148 133.384 379.602 120.603 379.042L120.469 378.453C119.63 374.708 119.038 370.701 119.795 366.96L119.858 366.666ZM323.85 357.853C323.867 355.525 320.255 355.523 320.237 357.853L320.233 358.31C320.19 361.979 319.889 367.19 316.296 369.135C313.101 370.865 308.859 369.566 305.475 368.244L304.788 367.97L303.796 367.566C301.646 366.685 300.709 370.182 302.836 371.053L303.367 371.269C307.969 373.11 313.88 374.862 318.422 372.081C322.863 369.362 323.718 363.599 323.836 358.759L323.844 358.388L323.85 357.853Z"
                            fill="#EDB98A"
                        />
                        <path
                            fill-rule="evenodd"
                            clip-rule="evenodd"
                            d="M313.817 218.383L314.188 218.451L324.41 220.354L314.042 221.137C313.562 221.173 313.08 221.218 312.596 221.271C311.6 221.38 310.622 221.518 309.661 221.684L309.039 221.796L309.306 221.782C313.093 221.606 316.883 221.915 320.62 222.701C324.306 223.474 327.576 224.527 330.503 225.96L330.852 226.133L331.303 226.365L331.52 226.469L331.693 226.549C332.495 226.919 332.82 227.11 333.159 227.57C333.831 228.481 333.544 229.511 332.679 230.293C332.029 230.879 331.191 231.169 330.092 231.335C329.929 231.36 329.763 231.381 329.583 231.402L328.611 231.497C326.798 231.687 325.603 232.669 325.422 234.192C325.244 235.685 326.118 237.199 327.372 237.571L327.464 237.596L327.581 237.623C327.744 237.659 327.887 237.699 328.026 237.75L328.13 237.79L328.356 237.883L328.367 237.884L328.374 237.89L328.59 237.978L328.646 238.088L328.68 238.114C328.808 238.218 328.861 238.292 328.946 238.452L329.019 238.594L329.079 238.801L329.095 238.868L329.106 238.923L329.107 238.939L329.167 239.317L329.183 239.445L329.188 239.529L329.189 245.328L327.703 242.353L327.652 242.396C326.932 242.975 326.01 243.451 324.836 243.915L324.598 244.008L323.978 244.237L322.756 244.674L322.474 244.778L322.224 244.875C322.026 244.953 321.856 245.025 321.702 245.097C321.468 245.204 321.262 245.325 321.084 245.46L320.979 245.542L320.391 246.029L318.942 245.523C318.772 245.463 318.616 245.407 318.469 245.353L317.063 244.829L315.859 244.386C314.297 243.814 312.893 243.318 311.527 242.856L309.868 242.303L308.659 241.908C308.239 241.772 307.795 241.63 307.306 241.474L300.472 239.313L299.156 238.89C298.417 238.651 297.752 238.433 297.064 238.203L295.788 237.773L294.551 237.348C290.525 235.947 286.674 234.449 279.816 231.676L281.304 232.525L282.409 233.15C283.733 233.896 285.184 234.705 286.806 235.604L294.186 239.685L295.663 240.512L298.969 242.372L300.715 243.347C303.842 245.085 306.062 246.26 308.428 247.415C310.257 248.309 312.137 249.167 314.095 250.003L314.833 250.316L315.964 250.787L316.856 251.175L317.46 251.44L317.858 251.61C319.994 252.505 321.246 252.737 322.637 252.373L322.735 252.345L322.83 252.312L325.54 251.271L324.596 254.019C324.489 254.332 324.382 254.649 324.277 254.968L324.087 255.551L323.932 255.857C323.024 257.663 322.128 259.524 321.226 261.474L320.742 262.525L320.462 262.733C320.36 262.808 320.267 262.92 320.189 263.071C319.83 263.772 319.482 264.472 319.146 265.171L318.792 265.913L318.428 266.699C316.832 270.136 315.384 273.665 313.506 278.587L311.032 285.15L310.662 286.129C307.624 294.153 304.759 302.195 302.073 310.253C296.761 326.153 292.063 342.288 287.991 358.612C279.817 391.403 274.362 424.687 271.689 458.187C271.184 464.502 270.82 470.785 270.598 477.049L270.543 478.675L270.37 480.113C270.235 481.247 270.109 482.349 269.99 483.427L269.919 484.07C269.05 492.045 268.632 498.32 268.676 504.328C268.698 507.308 268.788 510.086 268.958 512.761L268.998 513.377L269.67 523.214L266.37 513.923C266.137 513.267 265.91 512.598 265.656 511.819L265.335 510.826L265.18 510.327C265.042 509.869 264.909 509.396 264.743 508.778L264.159 506.568L264.015 506.037C263.863 505.489 263.737 505.068 263.591 504.618L263.417 504.093L263.288 503.727C263.054 503.071 262.777 502.371 262.342 501.311L261.671 499.682L261.537 499.35V499.085L261.559 498.209C261.605 496.116 261.594 493.913 261.532 491.442L261.476 489.505L261.417 487.845C261.411 487.674 261.404 487.498 261.397 487.316L261.087 479.851L260.488 463.273L260.395 460.473C260.328 458.39 260.273 456.506 260.227 454.668L260.186 452.989L260.173 452.418C259.809 435.969 259.945 419.047 260.552 401.448L260.612 399.743L260.673 398.064C261.692 370.724 263.453 347.454 267.631 301.642L268.325 294.061L269.366 282.843L269.605 280.21C270.088 274.848 270.435 270.667 270.728 266.572L270.856 264.747C271.348 257.51 271.646 249.994 271.791 241.741L271.814 240.257L271.163 242.524L270.599 234.983C270.429 232.7 270.14 230.59 269.716 228.623L269.623 228.204L269.44 227.403L269.296 226.872C269.055 225.974 270.573 221.843 270.573 221.843L271.433 221.637L272.473 221.392C289.043 217.52 301.951 216.249 313.817 218.383ZM150.479 211.671L150.979 211.809L151.295 211.898C153.83 212.628 156.521 213.66 159.626 215.038L160.515 215.437C160.912 215.617 163.205 216.525 164.117 216.914L164.273 216.981C167.64 218.461 169.647 220.016 170.089 222.304L170.117 222.459C171.099 223.402 172.238 224.308 173.533 225.177L173.861 225.394L174.17 225.594C175.563 226.481 176.883 227.264 178.124 227.94L178.46 228.121L178.692 228.244L180.927 229.013L183.691 229.972L184.245 230.162C187.125 231.143 188.824 231.659 190.859 232.159L192 232.439C196.329 233.49 200.164 234.309 203.861 234.951C207.624 235.602 211.488 236.172 215.483 236.671L216.832 236.837C218.162 236.994 219.466 237.112 221.498 237.271L224.783 237.526L227.004 237.706L225.822 239.597C222.725 244.552 220.336 250.072 217.662 257.878L217.363 258.755C214.938 265.929 213.232 272.393 210.295 284.798C205.848 303.619 202.185 322.618 199.32 341.723C197.346 354.89 195.746 368.025 194.525 381.119L194.353 382.989L191.655 382.986C191.3 378.963 190.859 374.82 190.327 370.465C188.659 356.899 186.258 343.579 183.12 330.581L182.824 329.364L182.695 328.839L182.962 328.37C183.122 328.087 183.186 327.77 183.141 327.493C182.811 325.444 182.21 323.574 181.061 320.753L179.89 317.92L179.627 317.269L179.608 317.202C178.366 312.84 177.042 308.528 175.636 304.268L175.165 302.85L175.144 302.784C173.104 295.481 171.098 289.452 168.742 283.803C166.896 279.39 164.798 275.063 162.46 270.838L162.019 270.048L161.979 269.97C159.017 263.807 155.867 257.979 152.521 252.518L151.985 251.648L151.935 251.505C151.821 251.175 151.649 250.882 151.421 250.633L151.332 250.542L151.22 250.432L150.975 250.046L149.016 249.556C143.505 248.176 137.77 248.055 131.368 249.011L130.94 249.076L130.511 249.145C125.81 249.909 121.772 250.951 114.437 253.183L107.221 255.395L106.194 255.701L105.224 255.987C101.707 257.013 98.6266 257.787 95.6357 258.369L95.2284 258.447L94.1218 258.654L93.5743 258.754C90.2791 259.342 87.9718 259.501 85.7902 259.083L85.5922 259.043L85.3496 258.989L85.133 258.935C82.5863 258.254 81.6452 256.409 82.8175 253.835C83.7869 251.704 85.8902 250.193 88.9813 248.869L89.4296 248.681L89.541 248.635L89.6586 248.61C90.3945 248.451 91.0991 248.171 91.7698 247.763C93.1223 246.942 93.6878 245.243 93.0751 243.841C92.4432 242.404 90.7142 241.459 89.5107 241.944L88.6022 242.305L87.6084 242.697L86.9958 241.821C86.9617 241.772 86.9294 241.721 86.8979 241.666L86.8514 241.579L86.8215 241.518L86.7466 241.452L86.672 241.377C86.4853 241.174 86.3851 240.954 86.335 240.728C86.3161 240.643 86.3061 240.565 86.3015 240.488L86.2987 240.41C86.2959 240.25 86.3078 240.121 86.3575 239.671C86.5761 237.719 87.852 236.143 90.0616 234.332L90.4182 234.043L90.5247 233.959C94.7527 230.605 100.115 228.879 104.671 229.938C104.894 229.989 105.113 230.045 105.336 230.111L105.561 230.18L105.827 230.269C107.228 230.754 108.322 230.157 108.833 228.823C109.346 227.479 109.001 225.995 107.914 225.194L107.816 225.125L107.484 224.903L107.096 224.637L106.667 224.334L106.471 224.192L106.187 223.98C104.004 222.329 102.806 220.787 103.156 218.963L103.181 218.846L103.212 218.709L103.27 218.581L103.454 218.188L103.645 217.796L103.699 217.688L103.77 217.592C104.521 216.579 105.779 215.81 107.581 215.065L107.791 214.979C108.544 214.676 110.646 213.937 110.96 213.816L110.984 213.807C117.21 211.279 123.973 209.821 130.776 209.523C137.453 209.232 144.143 209.955 150.479 211.671Z"
                            fill="white"
                        />
                        <path
                            d="M267.087 281.337L267.006 281.951L266.929 282.566C264.716 300.196 262.851 322.382 261.226 340.072C257.983 375.337 255.996 410.746 256.272 446.169C256.343 455.329 256.675 464.461 257.097 473.606L257.188 475.566C257.663 485.534 258.39 496.067 261.162 505.682C261.469 506.744 262.151 507.355 262.937 507.576C262.97 508.697 263.034 509.821 263.109 510.934L263.167 511.767C263.488 516.265 264.405 525.609 266.365 529.686C268.275 533.664 271.459 536.82 275.518 538.556C276.656 539.041 277.814 539.389 278.986 539.632C254.335 540.137 221.957 539.34 197.259 538.744C199.826 538.34 201.282 536.308 201.621 533.718C202.298 528.519 201.025 523.145 198.144 518.774C197.846 518.322 197.494 517.919 197.101 517.576L197.169 514.699C197.218 512.542 197.241 510.383 197.119 508.227C196.857 503.472 196.464 498.716 196.121 493.965C195.425 484.449 194.888 474.915 194.676 465.377C194.242 446.3 194.558 427.205 195.637 408.156C197.801 370.097 202.836 327.762 211.077 290.536C211.678 287.823 212.283 285.111 212.911 282.403C219.319 285.735 230.726 286.932 237.73 286.978C246.508 287.032 259.157 285.011 267.087 281.337Z"
                            fill="#78C0E0"
                        />
                        <path
                            fill-rule="evenodd"
                            clip-rule="evenodd"
                            d="M340.983 524.394C337.929 499.85 335.806 470.221 335.781 445.472C335.779 443.141 339.392 443.145 339.394 445.472C339.418 470.221 341.542 499.85 344.596 524.394C344.883 526.701 341.267 526.673 340.983 524.394M318.359 372.212C313.64 375.101 307.443 373.097 302.773 371.184C300.646 370.313 301.583 366.816 303.733 367.697C307.287 369.153 312.482 371.296 316.233 369.266C319.978 367.239 320.146 361.663 320.174 357.984C320.192 355.654 323.804 355.656 323.787 357.984C323.749 362.989 323.08 369.32 318.359 372.212M309.624 484.528C304.863 482.085 300.801 478.746 297.531 474.506C296.11 472.663 299.25 470.865 300.651 472.681C303.528 476.412 307.277 479.266 311.448 481.406C313.519 482.469 311.689 485.588 309.624 484.528M286.74 358.314C278.57 391.084 273.088 424.44 270.401 458.109C269.855 464.944 269.471 471.77 269.254 478.601C269.037 480.382 268.83 482.168 268.636 483.953C267.899 490.707 267.335 497.569 267.385 504.368C267.407 507.42 267.502 510.457 267.71 513.499C267.348 512.482 267.014 511.461 266.689 510.444C266.025 508.36 265.587 506.199 264.91 504.129C264.35 502.415 263.627 500.774 262.955 499.115V499.111C263.158 492.316 262.697 485.459 262.462 478.696C262.16 469.935 261.785 461.183 261.591 452.418C261.202 434.887 261.397 417.343 262.029 399.822C263.298 364.516 266.504 329.378 269.737 294.217C270.636 284.439 271.602 274.666 272.271 264.869C272.944 254.969 273.215 245.051 273.291 235.125C273.296 234.41 272.212 234.221 272.013 234.912C271.837 232.557 271.526 230.206 271.006 227.932C278.796 232.905 287.01 237.204 295.062 241.724C299.303 244.107 303.525 246.53 307.896 248.663C310.299 249.838 312.724 250.919 315.198 251.941C317.763 252.999 320.215 254.454 323.038 253.717C323.282 253.654 323.512 253.564 323.733 253.446C323.413 254.056 323.092 254.662 322.785 255.277C321.719 257.397 320.703 259.526 319.719 261.673C319.457 261.868 319.226 262.135 319.046 262.483C318.567 263.418 318.102 264.363 317.65 265.321C317.56 265.236 317.47 265.15 317.38 265.064C317 264.707 316.476 265.244 316.811 265.633C316.964 265.809 317.113 265.982 317.262 266.158C314.318 272.5 311.924 279.168 309.459 285.678C306.429 293.679 303.557 301.739 300.852 309.853C295.518 325.816 290.813 341.986 286.74 358.314M169.946 477.238C154.89 485.31 140.82 494.955 127.288 505.36C125.443 506.778 123.646 503.634 125.465 502.237C138.997 491.833 153.067 482.187 168.123 474.115C170.174 473.016 171.997 476.139 169.946 477.238M119.093 382.705C118.311 382.647 117.55 382.193 117.352 381.378C116.132 376.379 115.177 370.934 116.311 365.835C116.817 363.561 120.299 364.529 119.795 366.796C118.9 370.817 119.611 375.163 120.54 379.172C133.671 379.747 146.627 375.03 159.19 371.863C161.45 371.293 162.404 374.782 160.151 375.35C146.824 378.71 133.039 383.739 119.093 382.705M380.516 516.045C380.529 516.013 380.543 515.977 380.552 515.945C381.324 513.604 381.342 510.882 381.428 508.428C381.577 504.061 381.419 499.685 381.026 495.332C380.195 486.168 378.407 477.154 376.271 468.217C372.039 450.515 366.06 433.292 362.813 415.35C356.442 380.13 357.954 343.459 345.45 309.488C340.252 295.365 332.828 281.79 322.74 270.57C323.476 268.328 324.194 266.081 324.894 263.825C326.118 259.901 327.369 255.851 328.123 251.81C328.141 251.701 328.163 251.588 328.177 251.475C332.471 249.622 336.378 246.127 337.046 241.48C337.335 239.473 337.001 237.249 336.134 235.31C337.904 233.673 339.042 231.549 338.771 228.701C338.265 223.339 332.011 221.96 327.658 220.912C322.708 219.723 317.574 219.393 312.511 219.953C309.955 220.234 307.427 220.704 304.956 221.409C302.811 222.019 300.477 222.648 298.756 224.121C298.553 224.293 298.72 224.628 298.964 224.628C302.446 224.614 305.914 223.335 309.432 223.167C313.117 222.996 316.792 223.299 320.405 224.058C323.937 224.799 327.459 225.884 330.67 227.561C331.573 228.036 332.896 228.357 331.835 229.315C331.058 230.016 329.532 230.075 328.534 230.179C326.325 230.409 324.42 231.702 324.14 234.062C323.891 236.146 325.133 238.506 327.346 238.976C327.468 239.003 327.581 239.035 327.68 239.075C327.739 239.188 327.829 239.283 327.82 239.13C327.82 239.13 327.825 239.125 327.825 239.13C327.879 239.46 327.897 239.59 327.897 239.613C327.883 239.586 327.861 239.473 327.843 239.383C327.856 239.464 327.883 239.595 327.92 239.79C327.87 239.577 327.91 240.097 327.87 240.178C326.696 242.348 323.223 242.959 321.2 243.894C320.807 244.075 320.468 244.287 320.179 244.527C319.701 244.36 319.213 244.193 318.721 244.007C316.296 243.099 313.875 242.217 311.419 241.398C306.677 239.812 301.877 238.397 297.135 236.806C288.157 233.795 279.478 229.993 270.668 226.549C270.388 225.509 270.063 224.492 269.679 223.502C269.602 223.294 269.232 223.226 269.191 223.502C269.055 224.379 268.947 225.26 268.857 226.146C268.821 226.228 268.812 226.318 268.83 226.404C268.319 231.558 268.455 236.833 268.193 241.982C267.868 248.401 266.96 254.775 266.703 261.199V261.316C265.754 266.8 264.896 272.301 264.12 277.821C263.248 277.55 262.25 277.604 261.23 278.151C254.013 282.007 245.903 284.154 237.743 284.633C233.633 284.872 229.564 284.738 225.478 284.263C222.791 283.955 220.144 283.395 217.494 282.861C218.889 277.007 220.388 271.18 222.082 265.412C223.477 260.67 225.031 255.95 226.95 251.389C228.887 246.783 231.298 242.384 233.543 237.918C234.577 235.852 233.358 232.692 230.671 232.909C229.876 232.973 229.081 233.022 228.282 233.058C220.506 233.43 212.418 232.562 204.741 231.788C196.003 230.902 187.147 229.984 178.486 228.542C177.844 228.438 177.583 229.311 178.215 229.523C182.324 230.907 186.384 232.47 190.597 233.506C194.932 234.577 199.295 235.554 203.693 236.318C207.906 237.046 212.138 237.656 216.383 238.171C219.151 238.51 221.951 238.682 224.737 238.908C220.984 244.911 218.397 251.683 216.143 258.35C213.249 266.913 211.122 275.723 209.04 284.516C204.587 303.362 200.916 322.398 198.044 341.552C195.985 355.285 194.318 369.073 193.067 382.897C192.697 378.697 192.245 374.511 191.735 370.329C190.028 356.446 187.535 342.655 184.203 329.07C184.501 328.546 184.641 327.918 184.541 327.307C183.941 323.573 182.36 320.323 180.974 316.86C179.597 312.023 178.111 307.218 176.512 302.449C174.697 295.953 172.66 289.556 170.055 283.309C168.063 278.549 165.792 273.91 163.263 269.413C160.242 263.125 156.923 256.973 153.278 251.091C153.089 250.544 152.782 250.033 152.343 249.604C151.68 248.555 151.007 247.52 150.32 246.493C149.873 245.824 148.591 246.231 148.929 247.081C149.088 247.479 149.246 247.877 149.408 248.271C134.565 244.554 120.01 250.236 105.871 254.432C102.303 255.494 98.6997 256.452 95.0419 257.144C92.1653 257.686 88.8146 258.346 85.947 257.749C84.0278 257.352 83.1788 256.479 84.1136 254.427C85.08 252.303 87.7172 250.906 90.0067 249.966C90.8693 249.78 91.7182 249.45 92.5356 248.953C94.4413 247.795 95.2767 245.381 94.3781 243.325C93.5607 241.467 91.1763 239.866 89.0674 240.716C88.7649 240.838 88.4668 240.956 88.1688 241.073C88.1372 241.028 88.1011 240.965 88.0694 240.874C87.7669 240.047 87.6359 241.038 87.7669 239.853C87.9836 237.918 90.0293 236.16 91.4292 235.052C94.911 232.29 99.9416 230.247 104.435 231.291C104.774 231.368 105.112 231.463 105.446 231.58C110.075 233.185 112.329 226.513 108.63 224.026C108.404 223.877 108.12 223.687 107.808 223.466C106.268 222.394 104.015 220.591 104.629 218.964C105.388 216.943 109.863 215.781 111.556 215.094C117.68 212.607 124.296 211.197 130.898 210.908C137.541 210.618 144.269 211.351 150.677 213.145C153.82 214.022 157.049 215.356 160.02 216.704C162.689 217.91 168.497 219.506 168.867 222.887C168.948 223.634 170.009 223.886 170.24 223.073C172.06 216.581 164.997 212.39 160.337 209.71C157.279 207.946 153.811 206.848 150.456 205.768C147.241 204.728 143.958 203.964 140.607 203.503C133.413 202.518 126.133 202.644 118.998 204.027C112.5 205.289 105.27 207.44 100.018 211.626C96.7941 214.194 95.3354 218.281 96.6315 222.268C96.6766 222.399 96.7218 222.535 96.767 222.666C90.9641 223.705 85.4728 227.033 81.8015 231.671C78.7849 235.481 77.2043 240.784 79.9048 245.219C79.7919 245.3 79.679 245.386 79.5706 245.476C76.9966 247.538 75.0819 250.531 74.5129 253.803C73.3975 260.259 77.2946 264.775 82.7453 266.501C81.395 267.822 80.099 269.223 78.83 270.624C75.9896 273.766 73.2755 277.188 70.8821 280.678C66.0321 287.748 61.8866 295.446 58.2604 303.204C50.8047 319.134 46.1037 336.281 43.611 353.667C42.3555 362.427 41.5156 371.233 41.195 380.076C40.8247 390.157 41.1995 400.242 41.0053 410.327C40.8156 420.019 39.7454 429.476 37.5823 438.925C35.5095 447.961 32.7458 456.817 30.2441 465.736C27.4216 475.78 24.3147 485.78 22.8245 496.136C22.0704 501.407 21.5285 506.692 21.9484 512.021C22.3729 517.451 24.3418 522.093 26.1572 527.143C26.6178 528.432 28.0223 528.951 29.1467 528.675C29.3996 531.094 30.3118 533.453 31.6711 535.497C34.5567 539.827 39.0003 542.589 44.0896 543.593C49.8248 544.719 55.736 544.452 61.5434 544.244C67.843 544.018 74.1471 543.814 80.4467 543.552C87.0421 543.28 93.637 542.999 100.232 542.718C100.014 535.951 99.7542 529.186 99.4602 522.423C97.8702 485.859 95.3661 449.273 95.2998 412.661C95.172 412.586 95.0464 412.497 94.9263 412.38C91.9571 409.508 88.3119 407.621 84.8871 405.372C82.9489 404.1 84.7607 400.97 86.7106 402.25C89.5981 404.145 92.607 405.83 95.3129 407.954C95.3287 404.143 95.3621 400.332 95.4375 396.52C95.4836 394.192 99.0962 394.192 99.0502 396.52C98.8235 408.007 98.8993 419.497 99.159 430.983C99.9994 468.204 102.641 505.356 103.844 542.563C121.546 541.806 139.249 541.043 156.954 540.396C171.355 539.873 185.756 539.348 200.157 538.824C203.178 538.716 204.876 536.554 205.247 533.729C205.924 528.53 204.65 523.156 201.769 518.784C201.471 518.332 201.119 517.93 200.726 517.586C200.794 514.472 200.92 511.352 200.744 508.238C200.482 503.482 200.089 498.727 199.746 493.975C199.051 484.46 198.513 474.926 198.301 465.387C197.868 446.311 198.184 427.216 199.263 408.166C201.426 370.108 206.461 332.293 214.703 295.067C215.303 292.354 215.908 289.642 216.536 286.934C222.944 290.266 230.739 291.463 237.743 291.509C246.521 291.563 255.106 289.542 263.036 285.868C262.982 286.279 262.927 286.686 262.878 287.097C260.665 304.727 258.8 322.393 257.174 340.082C253.932 375.347 251.945 410.757 252.22 446.179C252.297 455.994 252.672 465.776 253.137 475.577C253.611 485.545 254.338 496.077 257.111 505.693C257.418 506.755 258.1 507.365 258.886 507.587C258.926 508.988 259.017 510.394 259.116 511.777C259.437 516.275 260.353 525.619 262.313 529.696C264.224 533.675 267.407 536.83 271.467 538.567C276.624 540.768 282.201 540.135 287.647 539.782C311.328 538.236 334.991 536.166 358.659 534.348C361.955 534.095 365.252 533.847 368.544 533.589C371.475 533.363 374.505 533.164 377.106 531.641C380.064 529.909 382.372 521.406 381.351 517.889C381.166 517.247 380.886 516.614 380.516 516.045"
                            fill="black"
                        />
                        <path
                            fill-rule="evenodd"
                            clip-rule="evenodd"
                            d="M300.734 144.796C299.764 136.245 301.019 118.373 301.103 117.287C301.635 110.422 298.429 83.3159 292.368 85.8135C282.2 77.7393 268.659 75.9564 255.996 75.1048C229.694 73.3354 201.713 77.3971 181.403 95.1539C171.359 104.375 161.58 117.787 162.366 131.752C153.241 144.989 140.375 163.147 151.746 178.622C155.611 183.566 161.753 185.407 166.609 189.152C176.374 197.054 182.501 208.394 192.36 216.249C218.479 239.793 262.829 244.712 288.49 217.932C308.334 198.537 305.125 169.521 301.635 144.796C299.288 128.173 302.626 161.477 300.734 144.796Z"
                            fill="#EDB98A"
                        />
                        <path
                            fill-rule="evenodd"
                            clip-rule="evenodd"
                            d="M220.86 38.8442C227.894 37.4203 235.117 36.5342 242.301 36.8009L242.855 36.8225C248.26 37.0392 255.104 37.5186 259.819 40.6714C260.091 40.3984 260.527 40.2583 260.923 40.4477C266.526 43.1306 272.689 45.0704 278.588 46.9979C284.461 48.916 290.553 50.1822 296.709 50.6926C299.024 50.8847 301.006 53.3932 299.54 55.643C299.191 56.1792 298.851 56.7207 298.513 57.2637C299.079 57.2044 299.645 57.1434 300.211 57.086C302.073 56.8979 303.934 58.892 303.824 60.711C303.755 61.8552 303.632 62.9858 303.45 64.1028C304.159 64.0879 304.864 64.1946 305.546 64.4834C308.996 65.9449 308.755 70.0672 308.497 73.2036C308.139 77.5559 306.517 82.166 303.504 85.4235C305.753 87.7674 307.346 90.5665 308.296 93.8909C308.985 96.3185 309.368 98.9042 309.179 101.431L309.119 102.188C308.885 104.93 308.419 107.966 306.453 109.939C305.443 110.956 304.2 111.327 303.014 111.209C303.731 117.529 304.19 123.885 304.623 130.218L304.826 133.245C305.791 147.883 306.516 162.615 306.326 177.277C306.15 190.979 303.451 204.278 295.074 215.403C287.445 225.534 276.49 233.002 264.098 235.841C257.419 237.373 250.601 237.482 243.842 236.505C240.565 236.031 237.267 235.303 234.157 234.154C230.715 232.88 228.241 231.004 225.925 228.192C224.829 226.858 225.357 224.019 227.538 224.286C230.837 224.687 233.849 225.171 237.012 226.15L237.465 226.293C240.615 227.306 243.878 228.061 247.172 228.382C253.918 229.037 260.767 228.377 267.23 226.325C277.752 222.98 286.814 215.525 292.623 206.159C299.517 195.056 300.297 182.453 300.197 169.687C300.091 155.679 299.637 141.662 298.895 127.668L298.769 125.336C298.377 118.135 297.998 110.929 297.665 103.723C297.562 101.463 297.404 99.1845 297.12 96.9287C294.52 95.4008 292.19 93.2942 290.672 90.6949C287.621 91.9607 284.412 92.8738 281.46 93.6016C274.622 95.2887 267.523 95.6983 260.563 94.6418C258.686 95.4198 256.771 96.1038 254.827 96.6923C254.302 96.926 253.776 97.1557 253.251 97.3808C248.564 99.3924 243.81 101.097 238.862 102.344L237.647 102.648C235.043 103.292 232.215 103.926 229.444 104.125C228.989 104.302 228.498 104.451 227.961 104.582C225.438 105.197 222.819 105.391 220.233 105.174C217.714 104.962 215.893 102.408 217.281 100.016C218.295 98.2714 219.319 96.5309 220.35 94.795C216.759 96.2959 213.05 97.5435 209.31 98.6014C205.534 99.6682 201.703 100.568 197.868 101.395C195.818 101.834 193.759 102.222 191.713 102.661C190.248 102.973 188 103.135 186.805 104.103C185.485 105.165 185.111 107.642 184.61 109.17C183.952 111.155 183.335 113.148 182.772 115.165C181.65 119.188 180.731 123.27 180.019 127.393C179.307 131.52 178.829 135.688 178.563 139.869C178.297 144.046 178.414 148.251 177.987 152.409C177.756 154.615 175.395 155.75 173.651 154.209C173.447 154.028 173.241 153.845 173.037 153.66L172.732 153.381C171.24 152.025 169.794 150.588 168.6 148.969C168.384 148.671 168.176 148.359 167.983 148.043C167.951 148.043 167.924 148.034 167.892 148.011L167.561 147.761C163.917 145.04 157.828 141.492 154.274 146.013C153.142 147.453 152.562 149.287 152.081 151.056L151.237 154.223C150.69 156.29 150.176 158.368 149.876 160.483C149.195 165.221 149.538 170.681 152.787 174.479C154.085 175.998 155.874 177.083 157.87 177.367C158.983 177.521 160.083 177.331 161.187 177.191C162.309 177.051 163.39 177.277 164.513 177.168C166.297 176.992 167.077 179.135 166.41 180.482C166.049 181.205 165.625 181.829 165.144 182.358C165.531 182.693 165.901 183.054 166.257 183.434C167.311 183.773 168.257 184.501 168.965 185.464C169.537 186.241 169.834 187.087 169.884 187.977C169.947 188.199 170.001 188.425 170.051 188.655L171.018 190.229C171.23 190.574 171.442 190.915 171.655 191.25C174.115 195.138 176.846 198.429 180.24 201.53C183.507 204.513 187.053 207.185 190.122 210.385L190.484 210.765C193.345 213.79 196.361 217.452 195.241 221.85C194.953 222.98 193.38 223.793 192.353 223.029C189.05 220.57 187.386 216.674 184.584 213.69C181.699 210.616 178.504 207.854 175.612 204.789C172.876 201.896 170.717 198.618 169.091 195.011C168.442 195.73 167.496 196.241 166.185 196.44C163.931 196.779 161.831 195.454 160.849 193.497C160.218 193.777 159.574 194.03 158.924 194.229C155.509 195.278 153.36 191.467 154.648 188.651C155.337 187.141 156.198 185.83 157.267 184.727C153.927 184.266 150.529 182.534 148.335 180.374C142.828 174.944 142.071 166.785 143.31 159.529C143.968 155.682 145.104 151.79 146.578 148.178C146.834 147.55 147.109 146.917 147.411 146.293C147.244 146.289 147.073 146.216 146.965 146.076C145.969 144.711 144.757 143.594 144.017 142.066C143.337 140.665 142.58 139.246 142.044 137.785C140.94 134.797 140.399 131.425 140.039 128.265C139.295 121.796 139.583 115.368 140.571 108.94C142.251 97.9911 146.31 87.5134 152.291 78.3195C151.965 78.1478 151.653 77.9406 151.362 77.6956L151.219 77.57L150.985 77.3584C149.279 75.8092 149.426 72.9057 150.985 71.3366L151.478 70.8414C152.101 70.22 152.639 69.7276 153.646 69.051C153.795 68.9511 153.947 68.8571 154.1 68.7694C153.573 67.792 153.39 66.6492 153.757 65.3884C155.037 60.9963 161.337 61.1518 165.33 63.0671C169.748 59.1121 174.646 55.6788 179.955 52.8986C192.601 46.2805 206.899 41.6651 220.86 38.8442ZM155.496 154.525C157.857 153.752 160.993 155.375 163.116 156.351C165.806 157.59 168.095 159.421 170.312 161.356C171.416 162.323 171.614 163.905 171.34 165.257C171.312 165.392 171.286 165.533 171.254 165.673C170.961 167.115 169.357 168.249 167.937 168.209C164.967 168.127 163.553 165.555 161.872 163.376C161.674 163.729 161.426 164.054 161.119 164.299L160.912 164.461C160.214 164.994 159.445 165.42 158.523 165.379C157.87 165.347 157.244 165.18 156.667 164.877C155.225 164.113 154.59 162.242 154.981 160.718C155.225 159.76 155.784 159.009 156.514 158.49L156.242 158.303C155.659 157.896 155.128 157.468 154.714 156.836L154.621 156.686H154.657C154.206 155.908 154.5 154.851 155.496 154.525Z"
                            fill="black"
                        />
                        <path
                            fill-rule="evenodd"
                            clip-rule="evenodd"
                            d="M242.606 181.515H282.272L284.645 188.077C284.645 188.077 255.045 194.954 244.652 190.528L242.606 181.515Z"
                            fill="white"
                        />
                        <path
                            fill-rule="evenodd"
                            clip-rule="evenodd"
                            d="M271.866 168.771C275.534 163.627 270.339 158.789 266.928 156.714C266.035 156.072 266.744 153.946 268.653 154.274C285.993 157.256 277.008 187.156 254.87 170.748C252.234 168.62 255.426 163.932 258.267 165.755C258.411 165.865 258.562 165.982 258.72 166.104C261.911 168.574 267.751 173.094 271.866 168.771ZM236.966 116.994L236.118 117.143C233.375 117.62 230.661 118.661 228.181 119.915C223.534 122.265 218.895 126.121 216.501 130.814C216.241 131.324 216.797 132.021 217.341 131.655C221.488 128.871 225.444 126.335 230.299 124.945C232.513 124.312 234.721 123.932 237.018 123.8C237.731 123.759 238.429 123.776 239.113 123.793C241.105 123.842 242.973 123.889 244.705 122.485C246.028 121.414 245.689 119.334 244.705 118.214C242.85 116.104 239.589 116.54 236.966 116.994ZM282.199 115.173L281.55 115.04C280.787 114.887 280.02 114.952 279.346 115.226C278.684 115.496 278.109 115.964 277.706 116.641C277.171 117.542 277.099 118.298 277.348 119.297C277.539 120.068 277.96 120.649 278.51 121.068C279.089 121.51 279.824 121.768 280.587 121.857C284.107 122.271 287.573 123.046 290.943 124.146C292.522 124.662 294.012 125.361 295.488 126.086L296.761 126.713C297.936 127.288 299.148 127.842 300.681 128.244C300.802 128.276 300.921 128.306 301.039 128.334C301.413 128.216 301.514 128.076 301.594 127.964C301.605 127.949 301.615 127.935 301.626 127.921L301.662 127.875C301.772 127.738 301.907 127.527 301.779 126.545C298.435 119.602 289.261 116.651 282.199 115.173ZM245.462 149.326C244.091 150.128 242.624 149.739 241.456 148.809C240.733 148.233 240.184 147.497 239.634 146.759C238.99 145.894 238.344 145.026 237.413 144.413C235.953 143.451 233.997 143.401 232.319 143.679C229.8 144.096 227.625 145.286 225.443 146.479L225.443 146.479L225.443 146.479C224.208 147.155 222.971 147.832 221.668 148.37C221.162 148.579 220.866 147.931 221.036 147.549C223.219 142.638 227.777 138.257 233.199 137.38C238.868 136.462 245.002 140.2 246.982 145.588C247.481 146.947 246.651 148.631 245.462 149.326ZM299.329 143.602C299.446 143.645 299.564 143.513 299.529 143.401C298.096 138.733 292.697 136.768 288.165 137.157C285.361 137.398 282.783 138.425 280.657 140.299C278.629 142.087 277.05 145.47 278.885 147.944C280.772 150.487 284.646 149.665 284.867 146.322C285.01 144.155 288.736 142.817 290.623 142.484C293.555 141.966 296.587 142.584 299.329 143.602ZM246.842 188.376C248.17 188.902 259.396 189.419 266.025 189.116C270.546 188.913 282.272 186.17 282.272 184.993C282.272 183.816 281.772 182.752 281.343 182.797C279.599 182.986 265.705 183.139 255.922 183.247C251.6 183.294 248.08 183.333 246.765 183.362C246.12 183.376 245.442 183.362 244.756 183.344C244.28 184.817 245.514 187.849 246.842 188.376ZM269.316 179.811C274.535 179.765 280.873 179.71 285.389 179.977C287.002 180.072 287.796 182.377 287.909 183.471C288.979 193.638 280.869 201.748 271.914 204.89C263.605 207.805 252.631 208.357 245.221 202.91C242.001 200.545 239.563 197.268 237.973 193.62C237.115 191.653 236.487 189.615 236.14 187.499C236.107 187.299 236.07 187.09 236.032 186.875C235.765 185.355 235.441 183.514 235.959 182.124C236.71 180.124 238.697 180.103 240.522 180.082C240.673 180.081 240.823 180.079 240.972 180.076C241.706 180.061 242.441 180.045 243.176 180.029C245.114 179.987 247.052 179.945 248.987 179.923C253.152 179.875 257.317 179.863 261.48 179.851C262.928 179.847 264.375 179.842 265.822 179.837C266.897 179.831 268.075 179.821 269.316 179.811Z"
                            fill="black"
                        />
                        <path
                            fill-rule="evenodd"
                            clip-rule="evenodd"
                            d="M285.587 210.669C284.011 210.153 282.463 209.552 280.907 208.973C272.955 204.975 263.35 204.25 255.01 207.617C250.917 209.27 247.1 212.239 242.993 214.185C242.018 214.55 241.034 214.881 240.04 215.158C239.43 214.946 238.821 214.72 238.216 214.494C233.859 212.85 229.761 210.823 225.783 208.592C225.358 207.994 224.918 207.413 224.445 206.854C227.324 206.445 230.143 205.765 232.693 205.064C240.523 202.917 247.902 199.418 255.705 197.176C262.971 195.083 270.856 193.939 278.154 196.538C281.617 197.772 284.666 199.933 288.034 201.389C289.777 202.139 291.868 202.876 293.905 202.984C292.591 206.135 290.929 209.078 288.658 211.528C287.619 211.307 286.589 210.995 285.587 210.669ZM302.531 185.991C301.833 186.571 298.956 188.442 298.022 189.558C297.781 189.466 297.542 189.372 297.303 189.275C296.893 188.771 296.288 188.549 295.672 188.563C291.368 186.559 287.538 183.728 284.119 180.178C281.69 177.66 279.201 175.025 275.954 173.565C272.13 171.838 268.368 172.633 264.349 172.896C260.072 173.18 255.85 171.964 251.578 172.548C248.453 172.977 245.527 174.302 242.998 176.169C237.836 179.979 234.278 185.332 229.915 189.947C224.966 195.182 218.879 198.527 212.109 200.236C212.028 200.182 211.942 200.127 211.857 200.078C206.867 195.557 202.36 190.453 198.372 185.015C194.48 179.704 184.215 155.794 181.736 153.697C180.706 152.824 179.577 152.449 178.498 152.481C176.543 152.526 174.736 153.887 173.928 156.029C172.555 159.673 173.242 164.383 173.35 168.194C173.485 172.859 173.793 177.52 174.28 182.163C174.763 186.751 175.405 191.326 176.204 195.869C176.606 198.166 177.053 200.457 177.545 202.74C177.699 203.459 177.893 204.101 178.128 204.698C178.367 205.823 178.624 206.944 178.9 208.056C180.697 215.339 183.533 222.631 188.948 228.006C194.583 233.607 202.242 237.327 209.355 240.654C216.129 243.823 223.227 246.639 230.512 248.845C236.838 251.716 243.612 253.985 250.413 255.179C257.9 256.494 265.771 256.576 273.001 253.972C276.555 252.692 279.915 250.907 282.963 248.683C287.285 246.436 291.173 243.348 294.356 239.262C300.059 231.938 302.78 223.05 303.971 213.886C304.276 211.54 305.422 202.55 305.512 201.15C305.803 196.63 306.094 192.11 306.385 187.589C306.523 185.456 303.907 184.847 302.531 185.991Z"
                            fill="black"
                        />
                        <path
                            fill-rule="evenodd"
                            clip-rule="evenodd"
                            d="M298.617 164.412C291.839 167.679 282.384 162.86 277.827 157.812C276.168 155.974 274.889 150.715 275.527 147.38C277.255 138.347 283.749 132.926 290.604 131.075C300.107 128.508 309.671 135.01 308.556 142.684C307.499 149.956 305.897 160.505 298.617 164.412M252.487 147.061C251.944 156.904 244.047 165.52 234.609 168.073C219.402 172.32 211.887 161.62 208.483 150.092C208.144 148.946 207.349 145.45 209.483 142.451C217.875 130.655 238.292 132.666 248.49 135.904C251.475 138.762 252.695 142.886 252.487 147.061M305.98 130.083C305.976 130.089 305.97 130.094 305.966 130.1C305.931 130.079 305.897 130.057 305.861 130.036C305.9 130.052 305.942 130.066 305.98 130.083M318.703 131.221C317.82 121.199 286.406 125.036 282.733 125.858C272.71 128.809 264.053 136.837 252.846 133.308C241.235 120.351 202.132 124.067 193.935 130.667C192.384 130.058 190.497 130.385 188.498 130.96C178.231 130.588 131.364 134.131 140.95 147.248C142.405 148.258 143.859 147.23 143.899 145.149C193.873 127.09 189.029 144.005 194.955 142.029C195.86 142.29 196.805 142.455 197.631 142.629C202.218 144.106 203.775 143.65 204.38 148.804C208.531 188.608 261.481 174.87 257.139 142.221C261.439 141.984 265.2 140.123 269.747 141.94C272.904 172.697 297.629 173.938 305.069 163.277C310.68 155.876 308.455 144.709 316.168 138.887C319.212 141.438 319.408 132.83 318.703 131.221"
                            fill="black"
                        />
                    </g>
                </svg>